# xmcd
# 
# Track frame offsets:
#     150
#     14289
#     31481
#     47261
#     61696
#     78207
#     100917
#     120338
#     135570
#     154048
#     169946
#     185578
#     207619
# 
# Disc length: 2974
# 
# Revision: 2
# Processed by: cddbd v1.5.2PL0 Copyright (c) Steve Scherf et al.
# Submitted via: fre:ac v1.0.17
# 
DISCID=9f0b9c0d
DTITLE=Raphael Gualazzi - Happy Mistake
DYEAR=2013
DGENRE=Jazz
TTITLE0=Baby what's wrong
TTITLE1=Don't call my name
TTITLE2=Un mare in luce
TTITLE3=L'amie d'un italien (rainbows) [with Camille]
TTITLE4=Senza ritegno
TTITLE5=Questa o quella per me pari non sono
TTITLE6=Seventy days of love
TTITLE7=I'm tired
TTITLE8=Sai (ci basta un sogno)
TTITLE9=Welcome to my hell [with The Puppini Sisters]
TTITLE10=Mambo soul
TTITLE11=Improvvisazione su temi di amarcord
TTITLE12=Don't call my name (radio mix)
EXTD=
EXTT0=
EXTT1=
EXTT2=
EXTT3=
EXTT4=
EXTT5=
EXTT6=
EXTT7=
EXTT8=
EXTT9=
EXTT10=
EXTT11=
EXTT12=
PLAYORDER=
